<svg width="6" height="9" viewBox="0 0 6 9" fill="none" xmlns="http://www.w3.org/2000/svg">
<path fill-rule="evenodd" clip-rule="evenodd" d="M1.05374 0.616314C1.16799 0.502199 1.32288 0.4381 1.48436 0.4381C1.64585 0.4381 1.80073 0.502199 1.91499 0.616314L5.36811 4.06944C5.48223 4.1837 5.54633 4.33858 5.54633 4.50006C5.54633 4.66155 5.48223 4.81643 5.36811 4.93069L1.91499 8.38381C1.79947 8.49145 1.64668 8.55005 1.48881 8.54727C1.33094 8.54448 1.18032 8.48053 1.06867 8.36888C0.957021 8.25723 0.893067 8.10661 0.890282 7.94874C0.887496 7.79087 0.946097 7.63808 1.05374 7.52256L4.07624 4.50006L1.05374 1.47756C0.93962 1.36331 0.875522 1.20842 0.875522 1.04694C0.875522 0.885454 0.93962 0.730573 1.05374 0.616314Z" fill="#D71921"/>
</svg>
